This is a repost of an upload from Maggiele who uploaded this as a single FLAC file. I split the tracks and am now uploading the correct FLAC album.


Robert Cray - Strong Persuader

Album 1986 + Covers


Tracklist:

01 Smoking Gun            (4:06)
02 I Guess I Showed Her   (3:37)
03 Right Next Door        (4:18)
04 Nothin But A Woman     (3:56)
05 Still Around           (3:40)
06 More Than I Can Stand  (2:57)
07 Foul Play              (4:06)
08 I Wonder               (3:55)
09 Fantasized             (4:02)
10 New Blood              (4:19)


Exact Audio Copy V0.99 prebeta 4 from 23. January 2008

EAC extraction logfile from 5. July 2008, 11:55

Robert Cray / Strong Persuader

Used drive  : TSSTcorpDVD-ROM SH-D162C   Adapter: 3  ID: 1

Read mode               : Secure
Utilize accurate stream : Yes
Defeat audio cache      : No
Make use of C2 pointers : No

Read offset correction                      : 6
Overread into Lead-In and Lead-Out          : No
Fill up missing offset samples with silence : Yes
Delete leading and trailing silent blocks   : No
Null samples used in CRC calculations       : No
Used interface                              : Installed external ASPI interface

Used output format              : User Defined Encoder
Selected bitrate                : 768 kBit/s
Quality                         : High
Add ID3 tag                     : No
Command line compressor         : C:Program FilesExact Audio CopyFLACFLAC.EXE
Additional command line options : -6 -V -T "ARTIST=%a" -T "TITLE=%t" -T "ALBUM=%g" -T "DATE=%y" -T "TRACKNUMBER=%n" -T "GENRE=%m" -T "COMMENT=%e" %s -o %d


TOC of the extracted CD

     Track |   Start  |  Length  | Start sector | End sector 
    ---------------------------------------------------------
        1  |  0:00.33 |  4:09.00 |        33    |    18707   
        2  |  4:09.33 |  3:40.62 |     18708    |    35269   
        3  |  7:50.20 |  4:21.05 |     35270    |    54849   
        4  | 12:11.25 |  3:58.70 |     54850    |    72769   
        5  | 16:10.20 |  3:43.63 |     72770    |    89557   
        6  | 19:54.08 |  2:58.22 |     89558    |   102929   
        7  | 22:52.30 |  4:07.65 |    102930    |   121519   
        8  | 27:00.20 |  3:57.68 |    121520    |   139362   
        9  | 30:58.13 |  4:05.07 |    139363    |   157744   
       10  | 35:03.20 |  4:20.63 |    157745    |   177307   


Range status and errors

Selected range

     Filename G:downloadsRobert Cray - Strong PersuaderRobert Cray - Strong Persuader.wav

     Peak level 99.5 %
     Range quality 100.0 %
     Copy CRC 3D7DBF28
     Copy OK

No errors occurred

 
AccurateRip summary
 
Track  1  accurately ripped (confidence 25)  [5D0B6B73]
Track  2  accurately ripped (confidence 25)  [4704FA9C]
Track  3  accurately ripped (confidence 25)  [4F6E656A]
Track  4  accurately ripped (confidence 25)  [01B613DC]
Track  5  accurately ripped (confidence 25)  [02E30C4E]
Track  6  accurately ripped (confidence 25)  [71811C5B]
Track  7  accurately ripped (confidence 25)  [3298719F]
Track  8  accurately ripped (confidence 25)  [C1709E06]
Track  9  accurately ripped (confidence 24)  [5CF2C215]
Track 10  accurately ripped (confidence 25)  [052BC187]
 
All tracks accurately ripped

End of status report
